<svg xmlns="http://www.w3.org/2000/svg" version="1.1" xmlns:xlink="http://www.w3.org/1999/xlink" width="512" height="512"><svg id="SvgjsSvg1011" data-name="Layer 1" xmlns="http://www.w3.org/2000/svg" viewBox="0 0 512 512">
  <defs>
    <style>
      .cls-1 {
        fill: #9fed8e;
        stroke: #000;
        stroke-miterlimit: 10;
        stroke-width: 1.07px;
      }

      .cls-2 {
        fill: #2d5e25;
      }
    </style>
  </defs>
  <g>
    <path class="cls-2" d="M256,507.58c-98.87,0-179.3-112.86-179.3-251.58S157.13,4.42,256,4.42c15.82,0,31.52,2.9,46.66,8.61,78.09,29.48,132.64,129.39,132.64,242.97,0,138.72-80.43,251.58-179.3,251.58Z"></path>
    <path d="M256,5.96c15.64,0,31.15,2.86,46.12,8.51,18.62,7.03,36.23,18.26,52.34,33.37,15.92,14.93,29.96,33.27,41.74,54.5,11.93,21.49,21.21,45.37,27.6,70.98,6.61,26.51,9.96,54.34,9.96,82.69,0,33.87-4.74,66.72-14.08,97.64-9.01,29.82-21.9,56.59-38.31,79.56-16.36,22.9-35.38,40.86-56.55,53.39-21.81,12.91-44.97,19.46-68.82,19.46s-47.01-6.55-68.82-19.46c-21.16-12.53-40.19-30.49-56.55-53.39-16.41-22.97-29.3-49.74-38.31-79.56-9.34-30.92-14.08-63.77-14.08-97.64s4.74-66.72,14.08-97.64c9.01-29.82,21.9-56.59,38.31-79.56,16.36-22.9,35.38-40.86,56.55-53.39,21.81-12.91,44.97-19.46,68.82-19.46M256,2.89c-99.87,0-180.83,113.32-180.83,253.11s80.96,253.11,180.83,253.11,180.83-113.32,180.83-253.11c0-116.93-56.65-215.35-133.63-244.41-15.05-5.68-30.87-8.71-47.2-8.71h0Z"></path>
  </g>
  <polygon class="cls-1" points="291.17 13.03 161.21 150.56 280.78 150.54 205.64 275.59 350.79 124.52 227.03 124.32 291.17 13.03"></polygon>
</svg><style>@media (prefers-color-scheme: light) { :root { filter: none; } }
@media (prefers-color-scheme: dark) { :root { filter: none; } }
</style></svg>